<mxfile host="app.diagrams.net" modified="2024-05-03T13:20:23.449Z" agent="Mozilla/5.0 (X11; Ubuntu; Linux x86_64; rv:125.0) Gecko/20100101 Firefox/125.0" version="24.3.1" etag="DaUip8HKaCLoWeHdhZt4" type="github">
  <diagram name="Страница — 1" id="m4Q0h_FRdjNMOSh_ij1u">
    <mxGraphModel>
      <root>
        <mxCell id="0" />
        <mxCell id="1" parent="0" />
      </root>
    </mxGraphModel>
  </diagram>
</mxfile>
